{"title":"Arrow S02E04 - 720p x264 HD [MKV,AC3,5.1] Ehhhh","uid":9131203,"size":440569381,"categoryP":"video","categoryS":"hd___tv_shows","magnet":"?xt=urn:btih:6d4a73fc105b17c9f3724564aac72722a4dcf865&amp;dn=Arrow+S02E04+-+720p+x264+HD+%5BMKV%2CAC3%2C5.1%5D+Ehhhh&amp;tr=udp%3A%2F%2Ftracker.openbittorrent.com%3A80&amp;tr=udp%3A%2F%2Fopen.demonii.com%3A1337&amp;tr=udp%3A%2F%2Ftracker.coppersurfer.tk%3A6969&amp;tr=udp%3A%2F%2Fexodus.desync.com%3A6969","seeders":1,"leechers":0,"uploader":"Ehhhhtozebec","files":-1,"time":1383323595,"description":" 02x04 - Crucible\n Oliver discovers a man who goes by the name &quot;The Mayor&quot; is bringing illegal guns in to The Glades, so Oliver sponsors a &quot;Cash for Guns&quot; event to help clean up the city. Unfortunately, The Mayor crashes the event with his gang and seriously injures Sin. The Canary is furious when she learns her friend is in the hospital and sets out for revenge. Meanwhile, Felicity stuns Oliver with a bit of information about the Canary, Donner asks Laurel to dinner, and Diggle reconnects with an old friend.\n\nGeneral\nFormat                                   : Matroska\nFormat version                           : Version 4 / Version 2\nFile size                                : 196 MiB\nDuration                                 : 19mn 47s\nOverall bit rate                         : 1 388 Kbps\nEncoded date                             : UTC 2013-11-01 14:51:12\nWriting application                      : mkvmerge v6.2.0 ('Promised Land') built on Apr 28 2013 12:22:01\nWriting library                          : libebml v1.3.0 + libmatroska v1.4.0\n\nVideo\nID                                       : 1\nFormat                                   : AVC\nFormat/Info                              : Advanced Video Codec\nFormat profile                           : &lt;a class=&quot;__cf_email__&quot; href=&quot;/cdn-cgi/l/email-protection&quot; data-cfemail=&quot;642c0d030c2428504a55&quot;&gt;[email&amp;#160;protected]&lt;/a&gt;&lt;script cf-hash='f9e31' type=&quot;text/javascript&quot;&gt;\n/* &lt;![CDATA[ */!function(){try{var t=&quot;currentScript&quot;in document?document.currentScript:function(){for(var t=document.getElementsByTagName(&quot;script&quot;),e=t.length;e--;)if(t[e].getAttribute(&quot;cf-hash&quot;))return t[e]}();if(t&amp;&amp;t.previousSibling){var e,r,n,i,c=t.previousSibling,a=c.getAttribute(&quot;data-cfemail&quot;);if(a){for(e=&quot;&quot;,r=parseInt(a.substr(0,2),16),n=2;a.length-n;n+=2)i=parseInt(a.substr(n,2),16)^r,e+=String.fromCharCode(i);e=document.createTextNode(e),c.parentNode.replaceChild(e,c)}}}catch(u){}}();/* ]]&gt; */&lt;/script&gt;\nFormat settings, CABAC                   : Yes\nFormat settings, ReFrames                : 14 frames\nCodec ID                                 : V_MPEG4/ISO/AVC\nDuration                                 : 19mn 47s\nBit rate                                 : 1 010 Kbps\nWidth                                    : 1 280 pixels\nHeight                                   : 720 pixels\nDisplay aspect ratio                     : 16:9\nFrame rate mode                          : Constant\nFrame rate                               : 23.976 fps\nColor space                              : YUV\nChroma subsampling                       : 4:2:0\nBit depth                                : 8 bits\nScan type                                : Progressive\nBits/(Pixel*Frame)                       : 0.046\nStream size                              : 138 MiB (70%)\nWriting library                          : x264 core 138 r2359+704+48 3f879a0 tMod [8-bit@all X86]\nDefault                                  : Yes\nForced                                   : No\n\nAudio\nID                                       : 2\nFormat                                   : AC-3\nFormat/Info                              : Audio Coding 3\nMode extension                           : CM (complete main)\nFormat settings, Endianness              : Big\nCodec ID                                 : A_AC3\nDuration                                 : 19mn 47s\nBit rate mode                            : Constant\nBit rate                                 : 384 Kbps\nChannel(s)                               : 6 channels\nChannel positions                        : Front: L C R, Side: L R, LFE\nSampling rate                            : 48.0 KHz\nBit depth                                : 16 bits\nCompression mode                         : Lossy\nStream size                              : 54.3 MiB (28%)\nDefault                                  : Yes\nForced                                   : No\n\n\n","torrent":{"xt":"urn:btih:6d4a73fc105b17c9f3724564aac72722a4dcf865","amp;dn":"Arrow+S02E04+-+720p+x264+HD+%5BMKV%2CAC3%2C5.1%5D+Ehhhh","amp;tr":["udp%3A%2F%2Ftracker.openbittorrent.com%3A80","udp%3A%2F%2Fopen.demonii.com%3A1337","udp%3A%2F%2Ftracker.coppersurfer.tk%3A6969","udp%3A%2F%2Fexodus.desync.com%3A6969"],"infoHash":"6d4a73fc105b17c9f3724564aac72722a4dcf865","infoHashBuffer":{"type":"Buffer","data":[109,74,115,252,16,91,23,201,243,114,69,100,170,199,39,34,164,220,248,101]},"announce":[],"urlList":[]}}